<?xml version="1.0" encoding="utf-8"?><svg xmlns="http://www.w3.org/2000/svg" xmlns:xlink="http://www.w3.org/1999/xlink"><symbol viewBox="0 0 15 14" id="headercart" xmlns="http://www.w3.org/2000/svg"><style/><g id="aPSDFreebies.com"><g id="aHeader"><g id="aIcons"><path id="acart" d="M14.04 3H12.6v1.77c.19.21.31.48.31.78 0 .64-.53 1.16-1.17 1.16-.65 0-1.17-.52-1.17-1.16 0-.35.15-.65.39-.86V3H4.23v1.72c.21.21.34.5.34.83 0 .64-.52 1.16-1.17 1.16-.64 0-1.17-.52-1.17-1.16 0-.33.13-.62.35-.83V3H.96C.43 3 0 3.43 0 3.95v8.65c0 .52.43.95.96.95h13.08c.53 0 .96-.43.96-.95V3.95c0-.52-.43-.95-.96-.95zm-2.26 5.48A.48.48 0 0111.3 8V4.64C11.3 2.61 9.63.96 7.59.96S3.88 2.61 3.88 4.64V8c0 .26-.21.48-.48.48-.26 0-.48-.22-.48-.48V4.64C2.92 2.08 5.02 0 7.59 0c2.58 0 4.67 2.08 4.67 4.64V8c0 .26-.21.48-.48.48z"/></g></g></g></symbol><symbol viewBox="0 0 16 15" id="headersearch" xmlns="http://www.w3.org/2000/svg"><style/><g id="bPSDFreebies.com"><g id="bHeader"><g id="bIcons"><path id="bsearch" d="M15.68 13.39l-4.81-4.51c.69-.92 1.11-2.04 1.11-3.25 0-3.1-2.69-5.62-6-5.62S-.01 2.53-.01 5.63s2.68 5.62 5.99 5.62c1.3 0 2.49-.39 3.47-1.04l4.81 4.51c.2.18.45.28.71.28.26 0 .51-.1.71-.28.39-.37.39-.96 0-1.33zm-6.44-5.6l-.4.52-.55.37c-.68.46-1.48.7-2.31.7-2.2 0-3.99-1.68-3.99-3.75 0-2.07 1.79-3.75 3.99-3.75 2.21 0 4 1.68 4 3.75 0 .78-.26 1.53-.74 2.16z"/></g></g></g></symbol><symbol viewBox="0 0 7 11" id="slideIcon1" xmlns="http://www.w3.org/2000/svg"><style/><g id="cPSDFreebies.com"><g id="cSlider"><g id="cIcons"><path id="cForm 1" d="M1.89 10.94l5.3-5.44L1.89.06.68 1.29l4.1 4.21-4.1 4.21 1.21 1.23z"/></g></g></g></symbol><symbol viewBox="0 0 11 11" id="slideIcon2" xmlns="http://www.w3.org/2000/svg"><style/><g id="dPSDFreebies.com"><g id="dSlider"><g id="dIcons"><path id="dForma 1" d="M10.84 3.88c0 .91-.39 1.73-1.02 2.29L6.44 9.54c-.34.34-.68.68-1.02.68-.34 0-.68-.34-1.02-.68L1.01 6.17h.01A3.052 3.052 0 010 3.88C0 2.17 1.39.78 3.11.78c.92 0 1.74.4 2.31 1.02C5.99 1.18 6.81.78 7.73.78c1.72 0 3.11 1.39 3.11 3.1z"/></g></g></g></symbol><symbol viewBox="0 0 12 13" id="slideIcon3" xmlns="http://www.w3.org/2000/svg"><style/><g id="ePSDFreebies.com"><g id="eSlider"><g id="eIcons"><path id="eForma 1" d="M9.61 8.17c-.57 0-1.07.24-1.43.63L3.96 6.7a1.553 1.553 0 000-.6l4.21-2.08c.36.39.87.63 1.44.63 1.09 0 1.98-.9 1.98-2.02S10.7.61 9.61.61c-1.09 0-1.98.9-1.98 2.02 0 .1.01.2.02.29L3.44 5.01c-.36-.39-.87-.64-1.43-.64-1.1 0-1.98.91-1.98 2.02 0 1.12.88 2.02 1.98 2.02.56 0 1.07-.24 1.43-.63l4.21 2.11c-.01.1-.02.2-.02.3 0 1.12.89 2.02 1.98 2.02 1.09 0 1.98-.9 1.98-2.02 0-1.11-.89-2.02-1.98-2.02z"/></g></g></g></symbol></svg>