<svg version="1.2" baseProfile="tiny-ps" xmlns="http://www.w3.org/2000/svg" viewBox="0 0 15 14" width="15" height="14">
	<title>PSDFreebies</title>
	<style>
		tspan { white-space:pre }
		.shp0 { fill: #202020 } 
	</style>
	<g id="PSDFreebies.com">
		<g id="Header">
			<g id="Icons">
				<path id="cart" class="shp0" d="M14.04 3L12.6 3L12.6 4.77C12.79 4.98 12.91 5.25 12.91 5.55C12.91 6.19 12.38 6.71 11.74 6.71C11.09 6.71 10.57 6.19 10.57 5.55C10.57 5.2 10.72 4.9 10.96 4.69L10.96 3L4.23 3L4.23 4.72C4.44 4.93 4.57 5.22 4.57 5.55C4.57 6.19 4.05 6.71 3.4 6.71C2.76 6.71 2.23 6.19 2.23 5.55C2.23 5.22 2.36 4.93 2.58 4.72L2.58 3L0.96 3C0.43 3 0 3.43 0 3.95L0 12.6C0 13.12 0.43 13.55 0.96 13.55L14.04 13.55C14.57 13.55 15 13.12 15 12.6L15 3.95C15 3.43 14.57 3 14.04 3ZM11.78 8.48C11.51 8.48 11.3 8.26 11.3 8L11.3 4.64C11.3 2.61 9.63 0.96 7.59 0.96C5.55 0.96 3.88 2.61 3.88 4.64L3.88 8C3.88 8.26 3.67 8.48 3.4 8.48C3.14 8.48 2.92 8.26 2.92 8L2.92 4.64C2.92 2.08 5.02 0 7.59 0C10.17 0 12.26 2.08 12.26 4.64L12.26 8C12.26 8.26 12.05 8.48 11.78 8.48Z" />
			</g>
		</g>
	</g>
</svg>